#define clfrog_width 18
#define clfrog_height 17

static char clfrog_bits[] = {
 0x00, 0x00, 0x00, 0xe0, 0x1c, 0x00, 0x10, 0x23, 0x00, 0x48, 0x48, 0x00,
 0xa8, 0x54, 0x00, 0x44, 0x88, 0x00, 0x06, 0x80, 0x01, 0x35, 0xb0, 0x02,
 0x45, 0x88, 0x02, 0x89, 0x87, 0x02, 0x09, 0x40, 0x02, 0x09, 0x40, 0x02,
 0x91, 0x24, 0x02, 0x91, 0x24, 0x02, 0x22, 0x13, 0x01, 0xdc, 0xec, 0x00,
 0x00, 0x00, 0x00 };
