#define downarrow_width 10
#define downarrow_height 18

static char downarrow_bits[] = {
 0x30, 0x00, 0x30, 0x00, 0x30, 0x00, 0x30, 0x00, 0x30, 0x00, 0x30, 0x00,
 0x30, 0x00, 0x30, 0x00, 0x30, 0x00, 0x30, 0x00, 0xb7, 0x03, 0xff, 0x03,
 0xfe, 0x01, 0xfe, 0x01, 0xfc, 0x00, 0xfc, 0x00, 0x78, 0x00, 0x30, 0x00
 };
