#define landmine2_width 11
#define landmine2_height 11
static char landmine2_bits[] = {
   0xf8, 0x00, 0x84, 0x01, 0x42, 0x02, 0x21, 0x06, 0x31, 0x05, 0xf9, 0x04,
   0x65, 0x04, 0x23, 0x04, 0x12, 0x02, 0x0c, 0x01, 0xf8, 0x00};
