#define leftresize_width 18
#define leftresize_height 18

static char leftresize_bits[] = {
 0xff, 0xff, 0x03, 0x01, 0x00, 0x02, 0x01, 0x00, 0x02, 0x01, 0x00, 0x02,
 0xf1, 0xff, 0x03, 0x11, 0x00, 0x02, 0x11, 0x00, 0x02, 0x11, 0x00, 0x02,
 0x11, 0xff, 0x03, 0x11, 0x01, 0x02, 0x11, 0x01, 0x02, 0x11, 0x01, 0x02,
 0x11, 0x01, 0x02, 0x11, 0x01, 0x02, 0x11, 0x01, 0x02, 0x11, 0x01, 0x02,
 0x11, 0x01, 0x02, 0xff, 0xff, 0x03 };
