P3
# lined paper
6 18
15

 15 15  0   15 15  0   15 15  0   15 15  0   15 15  0   15 15  0
 15 15  0   15 15  0   15 15  0   15 15  0   15 15  0   15 15  0
 15 15  0   15 15  0   15 15  0   15 15  0   15 15  0   15 15  0
 15 15  0   15 15  0   15 15  0   15 15  0   15 15  0   15 15  0
 15 15  0   15 15  0   15 15  0   15 15  0   15 15  0   15 15  0
 15 15  0   15 15  0   15 15  0   15 15  0   15 15  0   15 15  0
 15 15  0   15 15  0   15 15  0   15 15  0   15 15  0   15 15  0
 15 15  0   15 15  0   15 15  0   15 15  0   15 15  0   15 15  0
 15 15  0   15 15  0   15 15  0   15 15  0   15 15  0   15 15  0
 15 15  0   15 15  0   15 15  0   15 15  0   15 15  0   15 15  0
 15 15  0   15 15  0   15 15  0   15 15  0   15 15  0   15 15  0
 15 15  0   15 15  0   15 15  0   15 15  0   15 15  0   15 15  0
 15 15  0   15 15  0   15 15  0   15 15  0   15 15  0   15 15  0
 15 15  0   15 15  0   15 15  0   15 15  0   15 15  0   15 15  0
 15 15  0   15 15  0   15 15  0   15 15  0   15 15  0   15 15  0
 15 15  0   15 15  0   15 15  0   15 15  0   15 15  0   15 15  0
 15 15  0   15 15  0   15 15  0   15 15  0   15 15  0   15 15  0
  1  1 12    1  1 12    1  1 12    1  1 12    1  1 12    1  1 12
