#define lock_width 15
#define lock_height 18

static char lock_bits[] = {
 0x00, 0x00, 0xf0, 0x07, 0x08, 0x08, 0xe4, 0x13, 0x14, 0x14, 0x14, 0x14,
 0x14, 0x14, 0x14, 0x14, 0xff, 0x7f, 0x01, 0x40, 0x01, 0x40, 0x81, 0x40,
 0x81, 0x40, 0xc1, 0x41, 0x81, 0x40, 0x01, 0x40, 0xfe, 0x1f, 0x00, 0x00
 };
