#define resize_width 18
#define resize_height 18

static char resize_bits[] = {
 0xff, 0xff, 0x03, 0x01, 0x22, 0x02, 0x01, 0x22, 0x02, 0x01, 0x22, 0x02,
 0x01, 0x22, 0x02, 0x01, 0x22, 0x02, 0x01, 0x22, 0x02, 0x01, 0x22, 0x02,
 0x01, 0x22, 0x02, 0xff, 0x23, 0x02, 0x01, 0x20, 0x02, 0x01, 0x20, 0x02,
 0x01, 0x20, 0x02, 0xff, 0x3f, 0x02, 0x01, 0x00, 0x02, 0x01, 0x00, 0x02,
 0x01, 0x00, 0x02, 0xff, 0xff, 0x03 };
