#define noname_width 30
#define noname_height 18
static char noname_bits[] = {
 0x00,0x00,0x00,0x00,0x00,0x9c,0x03,0x00,0x00,0x62,0x04,0x00,0x00,0x09,0x09,
 0x00,0x00,0x95,0x0a,0x00,0x80,0x08,0x11,0x00,0xc0,0xf0,0x30,0x00,0xa0,0x08,
 0x51,0x00,0xa0,0x04,0x52,0x00,0x20,0x05,0x52,0x00,0x20,0x01,0x48,0x00,0x30,
 0x01,0x48,0x00,0x28,0x92,0x44,0x1f,0x24,0x92,0x44,0x20,0x42,0x64,0x22,0x10,
 0x81,0x9b,0x1d,0x08,0x02,0x00,0x80,0x06,0xfc,0xfe,0x7e,0x01};
