#define uwlogo1_width 152
#define uwlogo1_height 168
static char uwlogo1_bits[] = {
 0x00,0x00,0x00,0x00,0x00,0x00,0x00,0x00,0x00,0x00,0x00,0x00,0x00,0x00,0x00,
 0x00,0x00,0x00,0x00,0x00,0x00,0x00,0x00,0x00,0x00,0x00,0x00,0x00,0x00,0x00,
 0x00,0x00,0x00,0x00,0x00,0x00,0x00,0x00,0x00,0x00,0x00,0x00,0x00,0x00,0x00,
 0x00,0x00,0x00,0x00,0x00,0x00,0x00,0x00,0x00,0x00,0x00,0x00,0x00,0x00,0x00,
 0x00,0x00,0x00,0x00,0x00,0x00,0x00,0x00,0x00,0x00,0x00,0x00,0x00,0x00,0x00,
 0x00,0x00,0x00,0x00,0x00,0x00,0x00,0x00,0x00,0x00,0x00,0x00,0x00,0x00,0x00,
 0x00,0x00,0x00,0x00,0x00,0x00,0x00,0x00,0x00,0x00,0x00,0x00,0x00,0x00,0x00,
 0x00,0x00,0x00,0x00,0x00,0x00,0x00,0x00,0x00,0x00,0x00,0x00,0x00,0x00,0x00,
 0x00,0x00,0x00,0x00,0x00,0x00,0x00,0x00,0x00,0x00,0x00,0x00,0x00,0x00,0x00,
 0x00,0x00,0x00,0x00,0x00,0x00,0x00,0x00,0x00,0x00,0x00,0x00,0x00,0x00,0x00,
 0x00,0x00,0x00,0x00,0x00,0x00,0x00,0x00,0x00,0x00,0x00,0x00,0x00,0x00,0x00,
 0x00,0x00,0x00,0x00,0x00,0x00,0x00,0x00,0x00,0x00,0x00,0x00,0x00,0x00,0x00,
 0x00,0x00,0x00,0x00,0x00,0x00,0x00,0x00,0x00,0x00,0x00,0x00,0x00,0xff,0xff,
 0xff,0xff,0xff,0xff,0xff,0xff,0xff,0xff,0xff,0xff,0xff,0x01,0x00,0x00,0x00,
 0x00,0x00,0xab,0xaa,0xaa,0xaa,0xaa,0xaa,0xaa,0xaa,0xaa,0xaa,0xaa,0xaa,0xaa,
 0x03,0x00,0x00,0x00,0x00,0x00,0x03,0x00,0x00,0x00,0x00,0x00,0x00,0x00,0x00,
 0x00,0x00,0x00,0x00,0x01,0x00,0x00,0x00,0x00,0x00,0x03,0x00,0x00,0x00,0x00,
 0x00,0x00,0x00,0x00,0x00,0x00,0x00,0x80,0x03,0x00,0x00,0x00,0x00,0x00,0x03,
 0x00,0x00,0x00,0x00,0x00,0x00,0x00,0x00,0x00,0x00,0x40,0x00,0x01,0x00,0x00,
 0x00,0x00,0x00,0x03,0x00,0x00,0x10,0x00,0x00,0x00,0x00,0x00,0x00,0x00,0xf0,
 0x83,0x03,0x00,0x00,0x00,0x00,0x00,0x83,0x11,0x00,0xfe,0x01,0x00,0x00,0x00,
 0x00,0x80,0x8f,0xf8,0x03,0x01,0x00,0x00,0x00,0x00,0x00,0xc3,0x1b,0xc0,0xe3,
 0x01,0x80,0x5f,0x00,0x18,0xf0,0xf8,0xf8,0x87,0x03,0x00,0x00,0x00,0x00,0x00,
 0x03,0x3b,0x40,0xfb,0x00,0xc0,0xff,0x01,0x18,0xd0,0xff,0xf8,0x07,0x01,0x00,
 0x00,0x00,0x00,0x00,0x82,0x1f,0x00,0xfc,0x00,0xf0,0xff,0x0f,0x39,0x00,0x7f,
 0xfc,0x87,0x03,0x00,0x00,0x00,0x00,0x00,0x83,0x3f,0x20,0xfc,0x02,0xf0,0xff,
 0x1f,0x1f,0x3f,0x3e,0x98,0x07,0x01,0x00,0x00,0x00,0x00,0x00,0x82,0x1f,0xfc,
 0xfc,0x06,0xf8,0xff,0x0f,0x3f,0x1c,0xbf,0x09,0x83,0x01,0x00,0x00,0x00,0x00,
 0x00,0x03,0x3c,0x54,0x7c,0x06,0xfc,0xef,0x01,0x3c,0x00,0x9f,0x19,0x03,0x01,
 0x00,0x00,0x00,0x00,0x00,0x02,0x78,0x80,0x3e,0x0f,0x7c,0x1d,0x00,0x7f,0xe0,
 0xc7,0x89,0x81,0x01,0x00,0x00,0x00,0x00,0x00,0x03,0x70,0x80,0x02,0x0f,0x1e,
 0x10,0x00,0xf7,0x01,0xe0,0x89,0x01,0x01,0x00,0x00,0x00,0x00,0x00,0x06,0xe8,
 0x01,0xc0,0x0f,0x0e,0x00,0x00,0xc2,0x03,0xf8,0x89,0x80,0x01,0x00,0x00,0x00,
 0x00,0x00,0x03,0xe0,0x03,0xe0,0x0f,0x0e,0x00,0x00,0x80,0x0f,0xfe,0x81,0x80,
 0x01,0x00,0x00,0x00,0x00,0x00,0x06,0xc0,0x0f,0xf8,0x0f,0x06,0x00,0x00,0x80,
 0x9f,0xff,0x81,0x80,0x01,0x00,0x00,0x00,0x00,0x00,0x03,0x80,0x3f,0xfe,0x07,
 0x46,0x00,0x00,0x01,0xcf,0xff,0x40,0x82,0x01,0x00,0x00,0x00,0x00,0x00,0x86,
 0x01,0x3e,0xff,0x07,0x66,0x00,0x00,0x07,0xec,0xff,0x81,0x81,0x01,0x00,0x00,
 0x00,0x00,0x00,0x02,0x07,0x9c,0xff,0x07,0xf4,0x00,0x80,0x03,0xe0,0xff,0xc0,
 0x81,0x01,0x00,0x00,0x00,0x00,0x00,0x46,0x07,0xc0,0xff,0x07,0x7c,0x00,0x00,
 0x07,0xf0,0xff,0xc0,0x81,0x01,0x00,0x00,0x00,0x00,0x00,0xc2,0x0f,0xc0,0xff,
 0x03,0x3c,0x00,0xf0,0x0f,0xf8,0xff,0xc0,0x81,0x01,0x00,0x00,0x00,0x00,0x00,
 0xc6,0x1f,0xc0,0xff,0x07,0x38,0x00,0xf0,0x0f,0xf0,0xf7,0xc0,0x81,0x00,0x00,
 0x00,0x00,0x00,0x00,0x02,0xff,0xef,0xff,0x06,0x3f,0x00,0x90,0x0f,0xc0,0x01,
 0xc0,0x83,0x01,0x00,0x00,0x00,0x00,0x00,0x86,0xff,0xcf,0x9f,0x00,0x3f,0x00,
 0x80,0x3f,0x00,0x7c,0xc0,0x81,0x00,0x00,0x00,0x00,0x00,0x00,0x86,0xb3,0xef,
 0x07,0x80,0x3a,0x00,0xc0,0xf1,0x4a,0x7e,0xc0,0x83,0x01,0x00,0x00,0x00,0x00,
 0x00,0x06,0x00,0x48,0x50,0x03,0x38,0x00,0xc0,0xf0,0xcf,0x7f,0xc0,0x81,0x00,
 0x00,0x00,0x00,0x00,0x00,0x06,0x00,0x00,0xfe,0x03,0x10,0x00,0x40,0xc0,0xef,
 0x7f,0x80,0x81,0x01,0x00,0x00,0x00,0x00,0x00,0x04,0x00,0x00,0xff,0x07,0x18,
 0x00,0x00,0x80,0xcf,0x7f,0xc0,0x80,0x00,0x00,0x00,0x00,0x00,0x00,0x06,0x00,
 0x00,0xfe,0x07,0x10,0x00,0x00,0x00,0xce,0x7f,0xa0,0xc0,0x01,0x00,0x00,0x00,
 0x00,0x00,0x04,0x00,0xa0,0xfc,0x0f,0x08,0x00,0x00,0x00,0x98,0xff,0xf8,0x81,
 0x00,0x00,0x00,0x00,0x00,0x00,0x06,0x00,0xf0,0xf0,0x1f,0x08,0x00,0x00,0x00,
 0x00,0x7f,0xb0,0xc0,0x01,0x00,0x00,0x00,0x00,0x00,0x0c,0x1c,0xf8,0xc1,0x3f,
 0x06,0x00,0x00,0x00,0x00,0xfe,0x90,0x81,0x00,0x00,0x00,0x00,0x00,0x00,0x04,
 0x3c,0xf8,0xa8,0xff,0x03,0x00,0x00,0x00,0x00,0xf8,0x11,0xc1,0x00,0x00,0x00,
 0x00,0x00,0x00,0x0c,0x38,0x78,0xfe,0x7f,0x00,0x10,0x00,0x00,0x00,0xf0,0x01,
 0x81,0x00,0x00,0x00,0x00,0x00,0x00,0x04,0x3a,0x78,0xfe,0x3f,0x00,0x78,0x00,
 0x00,0x80,0xf3,0x03,0xc2,0x00,0x00,0x00,0x00,0x00,0x00,0x0c,0xff,0x78,0xfe,
 0x3f,0x00,0xfc,0x00,0x00,0xc0,0xe3,0x03,0xc3,0x00,0x00,0x00,0x00,0x00,0x00,
 0x0c,0xff,0x3f,0xff,0x1f,0x00,0xfe,0x01,0xf0,0xc0,0xc7,0x07,0xc2,0x00,0x00,
 0x00,0x00,0x00,0x00,0x0c,0xf8,0x7f,0xfe,0x02,0x80,0xff,0x07,0xe0,0xe0,0xd3,
 0x0f,0xc1,0x00,0x00,0x00,0x00,0x00,0x00,0x08,0x3c,0x07,0xfe,0x01,0xc0,0xff,
 0x0f,0xe0,0xc0,0xf9,0x8f,0x41,0x00,0x00,0x00,0x00,0x00,0x00,0x0c,0x08,0x00,
 0xf8,0x01,0xe0,0xff,0x1f,0xf8,0xe1,0xfc,0xff,0xc0,0x00,0x00,0x00,0x00,0x00,
 0x00,0x08,0x00,0x00,0xd0,0x03,0xf0,0xef,0x3f,0xf8,0xe3,0xfc,0x5f,0x60,0x00,
 0x00,0x00,0x00,0x00,0x00,0x1c,0x00,0x00,0x80,0x0f,0xfc,0xc7,0xff,0xc0,0xff,
 0xfe,0x0f,0x40,0x00,0x00,0x00,0x00,0x00,0x00,0x08,0x00,0x40,0xc0,0x07,0xfe,
 0x03,0xff,0xe1,0xff,0xfc,0x0f,0x60,0x00,0x00,0x00,0x00,0x00,0x00,0x18,0x00,
 0xe0,0xe0,0x01,0xff,0x01,0xfe,0x43,0x06,0xfc,0x1f,0x60,0x00,0x00,0x00,0x00,
 0x00,0x00,0x18,0x00,0xc0,0x7f,0x80,0x7f,0x00,0xfc,0x07,0x00,0xfc,0x3f,0x60,
 0x00,0x00,0x00,0x00,0x00,0x00,0x18,0x00,0xf0,0x3f,0xc0,0x3f,0x00,0xf8,0x0f,
 0x00,0x50,0x7f,0x60,0x00,0x00,0x00,0x00,0x00,0x00,0x18,0x00,0xf0,0x1f,0xf0,
 0x1f,0x00,0xe0,0x3f,0x00,0x00,0xf8,0x20,0x00,0x00,0x00,0x00,0x00,0x00,0x10,
 0x00,0xf8,0x0f,0xf8,0x0f,0x00,0xc0,0x7f,0x00,0x00,0xf0,0x60,0x00,0x00,0x00,
 0x00,0x00,0x00,0x18,0x00,0xc0,0x07,0xfc,0x07,0x00,0x80,0xff,0x00,0x00,0x70,
 0x30,0x00,0x00,0x00,0x00,0x00,0x00,0x30,0x00,0xf0,0x04,0xfe,0x01,0x00,0x00,
 0xff,0x01,0x80,0xf1,0x20,0x00,0x00,0x00,0x00,0x00,0x00,0x30,0x00,0xe0,0x80,
 0xff,0x00,0x00,0x00,0xfc,0x07,0xc0,0x71,0x30,0x00,0x00,0x00,0x00,0x00,0x00,
 0x30,0x00,0x00,0xc0,0x7f,0x00,0x00,0x00,0xf8,0x0f,0x00,0x39,0x30,0x00,0x00,
 0x00,0x00,0x00,0x00,0x20,0x00,0x00,0xe0,0x3f,0x00,0x78,0x00,0xf0,0x1f,0xc0,
 0x7f,0x30,0x00,0x00,0x00,0x00,0x00,0x00,0x30,0x00,0x00,0xf0,0x1f,0x00,0xfc,
 0x00,0xc0,0x3f,0xe0,0x3f,0x10,0x00,0x00,0x00,0x00,0x00,0x00,0x60,0x00,0x00,
 0xf8,0x07,0x00,0xfe,0x01,0x80,0xff,0x80,0x3f,0x38,0x00,0x00,0x00,0x00,0x00,
 0x00,0x20,0x00,0x00,0xfe,0x03,0x00,0xff,0x03,0x00,0xff,0x81,0x13,0x18,0x00,
 0x00,0x00,0x00,0x00,0x00,0x60,0x00,0x00,0xff,0x01,0x80,0xff,0x07,0x00,0xfe,
 0x03,0x01,0x18,0x00,0x00,0x00,0x00,0x00,0x00,0x60,0x00,0x80,0xff,0x00,0xe0,
 0xff,0x1f,0x00,0xf8,0x07,0x00,0x18,0x00,0x00,0x00,0x00,0x00,0x00,0x40,0x00,
 0xc0,0x7f,0x00,0xf0,0xff,0x3f,0x00,0xf0,0x1f,0x00,0x08,0x00,0x00,0x00,0x00,
 0x00,0x00,0xc0,0x00,0xe0,0x1f,0x00,0xf8,0xcf,0x7f,0x00,0xe0,0x3f,0x00,0x1c,
 0x00,0x00,0x00,0x00,0x00,0x00,0xc0,0x00,0xf8,0x0f,0x00,0xfc,0x87,0xff,0x00,
 0xc0,0x7f,0x00,0x0c,0x00,0x00,0x00,0x00,0x00,0x00,0xc0,0x00,0xfc,0x07,0x00,
 0xfe,0x03,0xff,0x03,0x00,0xff,0x00,0x0c,0x00,0x00,0x00,0x00,0x00,0x00,0x80,
 0x00,0xfe,0x03,0x00,0xff,0x00,0xfc,0x07,0x00,0xfe,0x03,0x04,0x00,0x00,0x00,
 0x00,0x00,0x00,0xc0,0x01,0xff,0x01,0xc0,0x7f,0x00,0xf8,0x0f,0x00,0xfc,0x07,
 0x0e,0x00,0x00,0x00,0x00,0x00,0x00,0x80,0xc1,0x7f,0x00,0xe0,0x3f,0x00,0xf0,
 0x1f,0x00,0xf8,0x0f,0x06,0x00,0x00,0x00,0x00,0x00,0x00,0x80,0xe1,0x3f,0x00,
 0xf0,0x1f,0x00,0xe0,0x7f,0x00,0xe0,0x1f,0x06,0x00,0x00,0x00,0x00,0x00,0x00,
 0x00,0xf1,0x1f,0x00,0xf8,0x0f,0x00,0x80,0xff,0x00,0xc0,0x7f,0x02,0x00,0x00,
 0x00,0x00,0x00,0x00,0x00,0xfb,0x0f,0x00,0xfc,0x03,0x00,0x00,0xff,0x01,0x80,
 0xff,0x06,0x00,0x00,0x00,0x00,0x00,0x00,0x00,0xff,0x03,0x00,0xff,0x01,0x70,
 0x05,0xfe,0x03,0x00,0xfe,0x03,0x00,0x00,0x00,0x00,0x00,0x00,0x00,0xfe,0x01,
 0x80,0xff,0x00,0xc8,0x07,0xfc,0x0f,0x00,0xfc,0x03,0x00,0x00,0x00,0x00,0x00,
 0x00,0x00,0xff,0x00,0xc0,0x7f,0x00,0xdf,0x03,0xf0,0x1f,0x00,0xf8,0x01,0x00,
 0x00,0x00,0x00,0x00,0x00,0x00,0x7e,0x00,0xe0,0x3f,0x00,0xfd,0x03,0xe0,0x3f,
 0x00,0xf0,0x01,0x00,0x00,0x00,0x00,0x00,0x00,0x00,0x3e,0x00,0xf0,0x0f,0x80,
 0xf8,0x19,0xc0,0x7f,0x00,0xc0,0x01,0x00,0x00,0x00,0x00,0x00,0x00,0x00,0x0c,
 0x00,0xf8,0x07,0xf0,0xff,0x1d,0x80,0xff,0x01,0xc0,0x00,0x00,0x00,0x00,0x00,
 0x00,0x00,0x00,0x0c,0x00,0xfe,0x03,0xa2,0x78,0x1c,0x00,0xfe,0x03,0xc0,0x00,
 0x00,0x00,0x00,0x00,0x00,0x00,0x00,0x0c,0x00,0xff,0x01,0x06,0x1e,0x1f,0x00,
 0xfc,0x07,0xc0,0x00,0x00,0x00,0x00,0x00,0x00,0x00,0x00,0x18,0x80,0xff,0xe0,
 0x0e,0xc4,0x1f,0x04,0xf8,0x0f,0x40,0x00,0x00,0x00,0x00,0x00,0x00,0x00,0x00,
 0x18,0xc0,0x3f,0xe0,0x06,0xf0,0x0f,0x3f,0xf0,0x3f,0x60,0x00,0x00,0x00,0x00,
 0x00,0x00,0x00,0x00,0x10,0xe0,0x1f,0xc0,0x0f,0xfc,0x9f,0x6f,0xc0,0x7f,0x60,
 0x00,0x00,0x00,0x00,0x00,0x00,0x00,0x00,0x30,0xf8,0x0f,0xa0,0x3f,0xfe,0x8f,
 0xcf,0x80,0xff,0x30,0x00,0x00,0x00,0x00,0x00,0x00,0x00,0x00,0x30,0xfc,0x07,
 0xe0,0x7f,0xff,0x8f,0x9f,0x00,0xff,0x31,0x00,0x00,0x00,0x00,0x00,0x00,0x00,
 0x00,0x60,0xfe,0x03,0xf1,0x3c,0xff,0x0f,0x3f,0x01,0xfe,0x17,0x00,0x00,0x00,
 0x00,0x00,0x00,0x00,0x00,0x60,0xff,0x80,0x43,0x88,0xff,0x0f,0x3f,0x01,0xf8,
 0x1f,0x00,0x00,0x00,0x00,0x00,0x00,0x00,0x00,0xe0,0x7f,0x80,0x07,0x80,0xfe,
 0x07,0x3e,0x01,0xf0,0x0f,0x00,0x00,0x00,0x00,0x00,0x00,0x00,0x00,0xc0,0x3f,
 0x40,0x07,0x40,0xee,0x0f,0x1c,0x02,0xe0,0x0f,0x00,0x00,0x00,0x00,0x00,0x00,
 0x00,0x00,0xc0,0x1f,0xe0,0x0f,0x00,0xc0,0x0f,0x0c,0x01,0xc0,0x07,0x00,0x00,
 0x00,0x00,0x00,0x00,0x00,0x00,0x80,0x0f,0xf0,0x7f,0x15,0x9f,0x0f,0x0c,0x0b,
 0x00,0x07,0x00,0x00,0x00,0x00,0x00,0x00,0x00,0x00,0x80,0x03,0xe0,0xff,0xbf,
 0xbf,0x0f,0x08,0x1d,0x00,0x03,0x00,0x00,0x00,0x00,0x00,0x00,0x00,0x00,0x00,
 0x03,0x80,0xf3,0x3f,0x3f,0x02,0x84,0x0f,0x00,0x03,0x00,0x00,0x00,0x00,0x00,
 0x00,0x00,0x00,0x00,0x03,0x80,0x09,0x7e,0x7f,0x00,0xe0,0x07,0x00,0x01,0x00,
 0x00,0x00,0x00,0x00,0x00,0x00,0x00,0x00,0x06,0x00,0x00,0x70,0xfe,0x05,0xf0,
 0x07,0x80,0x01,0x00,0x00,0x00,0x00,0x00,0x00,0x00,0x00,0x00,0x04,0x00,0x00,
 0x00,0xfe,0x0f,0xfc,0x07,0x80,0x00,0x00,0x00,0x00,0x00,0x00,0x00,0x00,0x00,
 0x00,0x0c,0x00,0x00,0x00,0xf8,0x07,0xfc,0x07,0xc0,0x00,0x00,0x00,0x00,0x00,
 0x00,0x00,0x00,0x00,0x00,0x08,0x00,0x00,0xa0,0xe1,0x0f,0xe4,0x03,0x40,0x00,
 0x00,0x00,0x00,0x00,0x00,0x00,0x00,0x00,0x00,0x18,0x00,0x00,0xf0,0x83,0x07,
 0xc0,0x01,0x60,0x00,0x00,0x00,0x00,0x00,0x00,0x00,0x00,0x00,0x00,0x30,0x00,
 0x00,0xf0,0x0f,0x0f,0x40,0x00,0x30,0x00,0x00,0x00,0x00,0x00,0x00,0x00,0x00,
 0x00,0x00,0x30,0x00,0x38,0xf0,0xf7,0x0f,0x40,0x00,0x30,0x00,0x00,0x00,0x00,
 0x00,0x00,0x00,0x00,0x00,0x00,0x60,0x00,0x38,0xf0,0xf3,0x0f,0x20,0x00,0x18,
 0x00,0x00,0x00,0x00,0x00,0x00,0x00,0x00,0x00,0x00,0xc0,0x00,0x70,0xe0,0xfb,
 0x1f,0x20,0x00,0x0c,0x00,0x00,0x00,0x00,0x00,0x00,0x00,0x00,0x00,0x00,0xc0,
 0x00,0xfc,0xe0,0xf3,0x3f,0x18,0x00,0x0c,0x00,0x00,0x00,0x00,0x00,0x00,0x00,
 0x00,0x00,0x00,0x80,0x01,0xfe,0xff,0xfb,0xff,0x0e,0x00,0x06,0x00,0x00,0x00,
 0x00,0x00,0x00,0x00,0x00,0x00,0x00,0x00,0x03,0xfc,0xff,0xf5,0x8f,0x00,0x00,
 0x03,0x00,0x00,0x00,0x00,0x00,0x00,0x00,0x2a,0x00,0x00,0x00,0x03,0xf0,0x3d,
 0xe0,0x1f,0x00,0x80,0x03,0x00,0x00,0xf8,0x03,0x00,0x00,0x80,0xff,0x01,0x00,
 0x00,0x06,0x78,0x0c,0x80,0x3f,0x00,0xc0,0x01,0x00,0x00,0x5e,0x0f,0x00,0x00,
 0xe0,0xa1,0x0f,0x00,0x00,0x0c,0x10,0x00,0x00,0x7e,0x00,0xc0,0x00,0x00,0x80,
 0x03,0x1c,0x00,0x00,0x70,0x00,0x1c,0x00,0x00,0x18,0x00,0x00,0x00,0xfc,0x00,
 0x60,0x00,0x00,0xe0,0x00,0x18,0x00,0x00,0x30,0x00,0x70,0x00,0x00,0x30,0x00,
 0x00,0x20,0xf0,0x01,0x30,0x00,0x00,0x70,0x00,0x30,0x00,0x00,0x18,0x00,0xe0,
 0x00,0x00,0x70,0x00,0x00,0xf0,0xf0,0x00,0x18,0x00,0x00,0x1c,0x00,0x60,0x00,
 0x00,0x18,0x08,0xc0,0x01,0x00,0xe0,0x00,0x00,0x60,0x70,0x00,0x1c,0x00,0x00,
 0x0e,0xf0,0x60,0x00,0x00,0x08,0x7e,0x00,0x03,0x00,0xc0,0x01,0x00,0xfc,0x38,
 0x00,0x0e,0x00,0x00,0x07,0x1a,0x60,0x00,0x00,0x18,0x46,0x00,0x06,0x00,0x80,
 0x03,0x00,0xfe,0x3f,0x00,0x07,0x00,0xc0,0x81,0x9b,0x60,0x00,0x00,0x0c,0x43,
 0x04,0x1c,0x00,0x00,0x07,0x00,0xe4,0x1f,0x80,0x03,0x00,0xe0,0xc0,0xf1,0x60,
 0x00,0x00,0x18,0x03,0x1f,0x38,0x00,0x00,0x0e,0x00,0x70,0x06,0xc0,0x01,0x00,
 0x70,0xe0,0x19,0x60,0x00,0x00,0x0c,0x82,0x11,0x60,0x00,0x00,0x1c,0x00,0x38,
 0x02,0xe0,0x00,0x00,0x1c,0x00,0x53,0x61,0x00,0x00,0x18,0xb6,0x30,0xc0,0x01,
 0x00,0x38,0x00,0x1c,0x00,0x38,0x00,0x00,0x0e,0x1c,0xf2,0x60,0x00,0x00,0x0c,
 0x98,0x20,0x81,0x03,0x00,0x60,0x00,0x00,0x00,0x1c,0x00,0x00,0x07,0x3c,0x26,
 0x60,0x00,0x00,0x08,0x80,0xb1,0x03,0x0e,0x00,0xc0,0x01,0x00,0x00,0x0e,0x00,
 0xc0,0x81,0xe9,0x04,0x60,0x00,0x00,0x0c,0x80,0xdd,0x01,0x1c,0x00,0x80,0x03,
 0x00,0x80,0x03,0x00,0xe0,0xc0,0xec,0x01,0x60,0x00,0x00,0x08,0x00,0x6e,0x09,
 0x30,0x00,0x00,0x0e,0x00,0xc0,0x01,0x00,0x78,0xf0,0x38,0x01,0x60,0x00,0x00,
 0x0c,0x00,0xa0,0x09,0xe0,0x00,0x00,0x3c,0x00,0xf0,0x00,0x00,0x1c,0x90,0x19,
 0x00,0x60,0x00,0x00,0x08,0x17,0x30,0x2d,0xc0,0x03,0x00,0x70,0x00,0x38,0x00,
 0x00,0x0f,0x0c,0x13,0xa0,0x60,0x00,0x00,0xdc,0x3f,0x80,0xf7,0x01,0x07,0x00,
 0xc0,0x03,0x0e,0x00,0x80,0x03,0x1b,0x17,0xf8,0x67,0x00,0x00,0xf8,0xf2,0x81,
 0x1b,0x03,0x1c,0x00,0x80,0x8f,0x07,0x00,0xe0,0x80,0x35,0x06,0xde,0x6f,0x00,
 0x00,0x3c,0x86,0x03,0x09,0x01,0x70,0x00,0x00,0xfc,0x01,0x00,0x38,0x60,0x34,
 0x00,0xc7,0x78,0x00,0x00,0x38,0x02,0x07,0x04,0x0b,0xe0,0x03,0x00,0x70,0x00,
 0x00,0x0e,0x68,0x6e,0xc0,0x81,0x79,0x00,0x00,0x1c,0x06,0x0c,0x0c,0x7c,0x00,
 0x0f,0x00,0x00,0x00,0xc0,0x03,0xcc,0x5b,0xe0,0xc0,0x70,0x00,0x00,0x18,0x02,
 0x38,0xf8,0x46,0x00,0xfc,0x00,0x00,0x00,0x7c,0x00,0xc7,0x10,0x30,0x80,0x21,
 0x00,0x00,0x0c,0x06,0x70,0x40,0xc2,0x06,0xe0,0x1f,0x00,0xc0,0x0f,0x40,0xb3,
 0x01,0x18,0xc0,0x60,0x00,0x00,0x18,0x02,0xe0,0x00,0x43,0x0f,0x00,0xff,0xab,
 0xfe,0x01,0x60,0x1a,0x03,0x0e,0x80,0x21,0x00,0x00,0x18,0x06,0x80,0x03,0x62,
 0x1b,0x00,0xe0,0xff,0x17,0x00,0xc4,0x46,0x00,0x07,0xc0,0x70,0x00,0x00,0x18,
 0x02,0x00,0x07,0x76,0xa1,0x00,0x00,0x00,0x00,0x00,0x4c,0x66,0xc0,0x03,0x80,
 0x21,0x00,0x00,0x10,0x06,0x00,0x1c,0x9c,0xb7,0x07,0x00,0x00,0x00,0x30,0xd8,
 0x3c,0xe0,0x00,0xc0,0x30,0x00,0x00,0x30,0x02,0x00,0x38,0xc0,0xcc,0x6c,0x00,
 0x00,0x80,0x30,0x70,0x08,0x70,0x00,0x80,0x39,0x00,0x00,0xe0,0x06,0x00,0x70,
 0x40,0x68,0x2c,0x06,0x00,0xb0,0x39,0xe0,0x00,0x1c,0x00,0xc0,0x1e,0x00,0x00,
 0xc0,0x03,0x00,0xc0,0x01,0x4c,0x68,0x0e,0x3c,0xa3,0x73,0xe0,0x00,0x0e,0x00,
 0x80,0x07,0x00,0x00,0x00,0x05,0x00,0x80,0x03,0x6c,0x2c,0x0b,0x66,0xb1,0x57,
 0x00,0x80,0x03,0x00,0x80,0x02,0x00,0x00,0x00,0x00,0x00,0x00,0x0e,0xe0,0xb6,
 0x0d,0x02,0xa3,0x5d,0x00,0xc0,0x01,0x00,0x00,0x00,0x00,0x00,0x00,0x00,0x00,
 0x00,0x3c,0x80,0xb3,0x0f,0x06,0x62,0xcd,0x00,0x70,0x00,0x00,0x00,0x00,0x00,
 0x00,0x00,0x00,0x00,0x00,0xf0,0x00,0xd0,0x0c,0x42,0x23,0x19,0x00,0x1c,0x00,
 0x00,0x00,0x00,0x00,0x00,0x00,0x00,0x00,0x00,0xc0,0x03,0x80,0x18,0x6e,0x36,
 0x01,0x80,0x0f,0x00,0x00,0x00,0x00,0x00,0x00,0x00,0x00,0x00,0x00,0x00,0x1f,
 0x00,0x10,0x3c,0x14,0x00,0xe0,0x03,0x00,0x00,0x00,0x00,0x00,0x00,0x00,0x00,
 0x00,0x00,0x00,0x7e,0x00,0x00,0x00,0x00,0x00,0x7c,0x00,0x00,0x00,0x00,0x00,
 0x00,0x00,0x00,0x00,0x00,0x00,0x00,0xe0,0x03,0x00,0x00,0x00,0x80,0x0f,0x00,
 0x00,0x00,0x00,0x00,0x00,0x00,0x00,0x00,0x00,0x00,0x00,0x00,0xbf,0x00,0x00,
 0x00,0xf8,0x01,0x00,0x00,0x00,0x00,0x00,0x00,0x00,0x00,0x00,0x00,0x00,0x00,
 0x00,0xf8,0xaf,0x00,0xd4,0x3f,0x00,0x00,0x00,0x00,0x00,0x00,0x00,0x00,0x00,
 0x00,0x00,0x00,0x00,0x00,0x80,0xff,0xff,0xff,0x05,0x00,0x00,0x00,0x00,0x00,
 0x00,0x00,0x00,0x00,0x00,0x00,0x00,0x00,0x00,0x00,0xa0,0xaa,0x2a,0x00,0x00,
 0x00,0x00,0x00,0x00,0x00,0x00,0x00,0x00,0x00,0x00,0x00,0x00,0x00,0x00,0x00,
 0x00,0x00,0x00,0x00,0x00,0x00,0x00,0x00,0x00,0x00,0x00,0x00,0x00,0x00,0x00,
 0x00,0x00,0x00,0x00,0x00,0x00,0x00,0x00,0x00,0x00,0x00,0x00,0x00,0x00,0x00,
 0x00,0x00,0x00,0x00,0x00,0x00,0x00,0x00,0x00,0x00,0x00,0x00,0x00,0x00,0x00,
 0x00,0x00,0x00,0x00,0x00,0x00,0x00,0x00,0x00,0x00,0x00,0x00,0x00,0x00,0x00,
 0x00,0x00,0x00,0x00,0x00,0x00,0x00,0x00,0x00,0x00,0x00,0x00,0x00,0x00,0x00,
 0x00,0x00,0x00,0x00,0x00,0x00,0x00,0x00,0x00,0x00,0x00,0x00,0x00,0x00,0x00,
 0x00,0x00,0x00,0x00,0x00,0x00,0x00,0x00,0x00,0x00,0x00,0x00,0x00,0x00,0x00,
 0x00,0x00,0x00,0x00,0x00,0x00,0x00,0x00,0x00,0x00,0x00,0x00,0x00,0x00,0x00,
 0x00,0x00,0x00,0x00,0x00,0x00,0x00,0x00,0x00,0x00,0x00,0x00,0x00,0x00,0x00,
 0x00,0x00,0x00,0x00,0x00,0x00,0x00,0x00,0x00,0x00,0x00,0x00,0x00,0x00,0x00,
 0x00,0x00,0x00,0x00,0x00,0x00,0x00,0x00,0x00,0x00,0x00,0x00};
