#define window_width 18
#define window_height 18

static char window_bits[] = {
 0xff, 0xff, 0x03, 0x15, 0xa0, 0x02, 0x15, 0xa0, 0x02, 0x11, 0x20, 0x02,
 0x49, 0x24, 0x02, 0xc9, 0x47, 0x02, 0x45, 0x85, 0x02, 0xc5, 0x07, 0x03,
 0x87, 0x03, 0x03, 0x85, 0x03, 0x03, 0xc5, 0x87, 0x02, 0xc9, 0x87, 0x02,
 0xe9, 0x4f, 0x02, 0xe9, 0x5f, 0x02, 0xe9, 0x5f, 0x03, 0xe5, 0x3f, 0x03,
 0xe5, 0xff, 0x03, 0xff, 0xff, 0x03 };
