P3
# linedpaper  13 13 1  5 9 15
6 18
15
 13 13  1  13 13  1  13 13  1  13 13  1  13 13  1  13 13  1 
 13 13  1  13 13  1  13 13  1  13 13  1  13 13  1  13 13  1 
 13 13  1  13 13  1  13 13  1  13 13  1  13 13  1  13 13  1 
 13 13  1  13 13  1  13 13  1  13 13  1  13 13  1  13 13  1 
 13 13  1  13 13  1  13 13  1  13 13  1  13 13  1  13 13  1 
 13 13  1  13 13  1  13 13  1  13 13  1  13 13  1  13 13  1 
 13 13  1  13 13  1  13 13  1  13 13  1  13 13  1  13 13  1 
 13 13  1  13 13  1  13 13  1  13 13  1  13 13  1  13 13  1 
 13 13  1  13 13  1  13 13  1  13 13  1  13 13  1  13 13  1 
 13 13  1  13 13  1  13 13  1  13 13  1  13 13  1  13 13  1 
 13 13  1  13 13  1  13 13  1  13 13  1  13 13  1  13 13  1 
 13 13  1  13 13  1  13 13  1  13 13  1  13 13  1  13 13  1 
 13 13  1  13 13  1  13 13  1  13 13  1  13 13  1  13 13  1 
 13 13  1  13 13  1  13 13  1  13 13  1  13 13  1  13 13  1 
 13 13  1  13 13  1  13 13  1  13 13  1  13 13  1  13 13  1 
 13 13  1  13 13  1  13 13  1  13 13  1  13 13  1  13 13  1 
 13 13  1  13 13  1  13 13  1  13 13  1  13 13  1  13 13  1 
  5  9 15   5  9 15   5  9 15   5  9 15   5  9 15   5  9 15 
